# xmcd
#
# Track frame offsets: 
#        150
#        14982
#        28125
#        41260
#        53370
#        67097
#        79415
#        92240
#        105960
#        118000
#        130275
#        144175
#        156740
#        170830
#        183857
#        197365
#        210055
#        223232
#        235260
#        247305
#
# Disc length: 3456 seconds
#
# Revision: 0
# Processed by: cddbd v1.4PL0 Copyright (c) Steve Scherf et al.
# Submitted via: ExactAudioCopy v0.95a4
#
DISCID=220d7e14
DTITLE=T-Bone Walker - American Blues Legend
DYEAR=1900
DGENRE=Blues
TTITLE0=I Got A Break, Baby
TTITLE1=Mean Old World
TTITLE2=I'm Gonna Find My Baby
TTITLE3=Bobby Sox Blues
TTITLE4=Call It Stormy Monday (but Tuesday is just as bad)
TTITLE5=T-Bone Jumps Again
TTITLE6=Long Skirt Baby Blues
TTITLE7=I'm Waiting For Your Call
TTITLE8=That's Better For Me
TTITLE9=Midnight Blues
TTITLE10=Plain Old Down Home Blues
TTITLE11=West Side Baby
TTITLE12=Description Blues
TTITLE13=That Old Feeling Is Gone
TTITLE14=T-Bone Shuffle
TTITLE15=Hypin' Woman Blues
TTITLE16=You're My Best Poker Hand
TTITLE17=Lonesome Women Blues
TTITLE18=She's My Old Time Used To Be
TTITLE19=Too Much Trouble Blues
EXTD=
EXTT0=
EXTT1=
EXTT2=
EXTT3=
EXTT4=
EXTT5=
EXTT6=
EXTT7=
EXTT8=
EXTT9=
EXTT10=
EXTT11=
EXTT12=
EXTT13=
EXTT14=
EXTT15=
EXTT16=
EXTT17=
EXTT18=
EXTT19=
PLAYORDER=
